<mxfile host="app.diagrams.net" modified="2020-05-20T12:57:14.078Z" agent="5.0 (X11)" etag="SbQT9qVEiGBA3a1eJfre" version="13.1.3" type="github">
  <diagram name="Page-1" id="c7558073-3199-34d8-9f00-42111426c3f3">
    <mxGraphModel dx="2886" dy="968" grid="1" gridSize="10" guides="1" tooltips="1" connect="1" arrows="1" fold="1" page="1" pageScale="1" pageWidth="1169" pageHeight="827" background="#ffffff" math="0" shadow="0">
      <root>
        <mxCell id="0" />
        <mxCell id="1" parent="0" />
        <mxCell id="5" value="Rehypothecation Dayly Run - Start of the Day - Business Flow" style="shape=process;whiteSpace=wrap;align=center;verticalAlign=middle;size=0.0475;fontStyle=1;strokeWidth=3;fillColor=#66B2FF;labelPosition=center;verticalLabelPosition=middle;" parent="1" vertex="1">
          <mxGeometry x="80" y="650" width="1220" height="50" as="geometry" />
        </mxCell>
        <mxCell id="9" value="&lt;p style=&quot;margin: 0px ; margin-top: 4px ; text-align: center ; text-decoration: underline&quot;&gt;&lt;strong&gt;&lt;strong&gt;Function 3&lt;/strong&gt;&lt;br&gt;&lt;/strong&gt;&lt;/p&gt;&lt;hr&gt;&lt;p style=&quot;margin: 0px ; margin-left: 8px&quot;&gt;Transforming to &lt;br&gt;&lt;/p&gt;&lt;p style=&quot;margin: 0px ; margin-left: 8px&quot;&gt;Positions Hub&lt;br&gt;&lt;/p&gt;" style="verticalAlign=middle;align=center;overflow=fill;fontSize=12;fontFamily=Helvetica;html=1;rounded=1;fontStyle=1;strokeWidth=3;fillColor=#E6FFCC" parent="1" vertex="1">
          <mxGeometry x="460" y="450" width="110" height="90" as="geometry" />
        </mxCell>
        <mxCell id="10" value="&lt;p style=&quot;margin: 0px ; margin-top: 4px ; text-align: center ; text-decoration: underline&quot;&gt;&lt;strong&gt;&lt;strong&gt;Function 1&lt;/strong&gt;&lt;br&gt;&lt;/strong&gt;&lt;/p&gt;&lt;hr&gt;&lt;p style=&quot;margin: 0px ; margin-left: 8px&quot;&gt;Staging data into &lt;br&gt;Parquet files&lt;br&gt;&lt;/p&gt;" style="verticalAlign=middle;align=center;overflow=fill;fontSize=12;fontFamily=Helvetica;html=1;rounded=1;fontStyle=1;strokeWidth=3;fillColor=#E6FFCC" parent="1" vertex="1">
          <mxGeometry x="109.99999999999991" y="450" width="110" height="90" as="geometry" />
        </mxCell>
        <mxCell id="13" value="/staging/positions_sod" style="whiteSpace=wrap;align=center;verticalAlign=middle;fontStyle=1;strokeWidth=3;fillColor=#FFFFCC" parent="1" vertex="1">
          <mxGeometry x="150" y="330" width="140" height="60" as="geometry" />
        </mxCell>
        <mxCell id="14" value="SOD Positions&#xa;Kafka&#xa;" style="whiteSpace=wrap;align=center;verticalAlign=middle;fontStyle=1;strokeWidth=3;fillColor=#CCCCCC;" parent="1" vertex="1">
          <mxGeometry x="-70.00000000000003" y="464.9999999999999" width="90" height="60" as="geometry" />
        </mxCell>
        <mxCell id="15" value="/staging/enriched/positions_sod" style="whiteSpace=wrap;align=center;verticalAlign=middle;fontStyle=1;strokeWidth=3;fillColor=#FFFFCC" parent="1" vertex="1">
          <mxGeometry x="310" y="330" width="190" height="60" as="geometry" />
        </mxCell>
        <mxCell id="11" value="&lt;p style=&quot;margin: 0px ; margin-top: 4px ; text-align: center ; text-decoration: underline&quot;&gt;&lt;strong&gt;&lt;strong&gt;Function 2&lt;/strong&gt;&lt;br&gt;&lt;/strong&gt;&lt;/p&gt;&lt;hr&gt;&lt;p style=&quot;margin: 0px ; margin-left: 8px&quot;&gt;Enrichment&lt;br&gt;&lt;/p&gt;" style="verticalAlign=middle;align=center;overflow=fill;fontSize=12;fontFamily=Helvetica;html=1;rounded=1;fontStyle=1;strokeWidth=3;fillColor=#E6FFCC" parent="1" vertex="1">
          <mxGeometry x="270" y="450" width="110" height="90" as="geometry" />
        </mxCell>
        <mxCell id="51" value="" style="endArrow=none;noEdgeStyle=1;strokeColor=#990000;strokeWidth=2;endFill=0;startArrow=classic;startFill=1;entryX=0.75;entryY=0;entryDx=0;entryDy=0;exitX=0.429;exitY=0.992;exitDx=0;exitDy=0;exitPerimeter=0;" parent="1" source="15" target="11" edge="1">
          <mxGeometry relative="1" as="geometry">
            <mxPoint x="333" y="400" as="sourcePoint" />
            <mxPoint x="440.32786885245895" y="510" as="targetPoint" />
          </mxGeometry>
        </mxCell>
        <mxCell id="85" value="" style="edgeStyle=elbowEdgeStyle;elbow=horizontal;strokeColor=#990000;strokeWidth=2" parent="1" source="10" target="13" edge="1">
          <mxGeometry width="100" height="100" relative="1" as="geometry">
            <mxPoint x="170.0000000000001" y="600" as="sourcePoint" />
            <mxPoint x="270.0000000000001" y="500" as="targetPoint" />
            <Array as="points">
              <mxPoint x="180" y="420" />
              <mxPoint x="200" y="430" />
              <mxPoint x="200" y="550" />
              <mxPoint x="430" y="415" />
              <mxPoint x="284" y="490" />
            </Array>
          </mxGeometry>
        </mxCell>
        <mxCell id="87" value="" style="edgeStyle=elbowEdgeStyle;elbow=vertical;strokeColor=#990000;strokeWidth=2;startArrow=classic;startFill=1;endArrow=none;endFill=0;" parent="1" source="10" target="14" edge="1">
          <mxGeometry width="100" height="100" relative="1" as="geometry">
            <mxPoint x="110" y="600" as="sourcePoint" />
            <mxPoint x="210" y="500" as="targetPoint" />
          </mxGeometry>
        </mxCell>
        <mxCell id="tzFokicHPVw3fMw82fXG-97" value="" style="endArrow=none;noEdgeStyle=1;strokeColor=#990000;strokeWidth=2;endFill=0;startArrow=classic;startFill=1;" edge="1" parent="1" source="9">
          <mxGeometry relative="1" as="geometry">
            <mxPoint x="675" y="425" as="sourcePoint" />
            <mxPoint x="460" y="390" as="targetPoint" />
          </mxGeometry>
        </mxCell>
        <mxCell id="tzFokicHPVw3fMw82fXG-98" value="/staging/hub/positions_sod" style="whiteSpace=wrap;align=center;verticalAlign=middle;fontStyle=1;strokeWidth=3;fillColor=#FFFFCC" vertex="1" parent="1">
          <mxGeometry x="520" y="330" width="170" height="60" as="geometry" />
        </mxCell>
        <mxCell id="tzFokicHPVw3fMw82fXG-99" value="" style="endArrow=none;noEdgeStyle=1;strokeColor=#990000;strokeWidth=2;endFill=0;startArrow=classic;startFill=1;entryX=0.571;entryY=-0.006;entryDx=0;entryDy=0;entryPerimeter=0;" edge="1" parent="1" target="9">
          <mxGeometry relative="1" as="geometry">
            <mxPoint x="550" y="390" as="sourcePoint" />
            <mxPoint x="787.5" y="425" as="targetPoint" />
          </mxGeometry>
        </mxCell>
        <mxCell id="tzFokicHPVw3fMw82fXG-102" value="/staging/client_settlement_ladder_sod" style="whiteSpace=wrap;align=center;verticalAlign=middle;fontStyle=1;strokeWidth=3;fillColor=#FFFFCC" vertex="1" parent="1">
          <mxGeometry x="720" y="330" width="260" height="60" as="geometry" />
        </mxCell>
        <mxCell id="tzFokicHPVw3fMw82fXG-103" value="&lt;p style=&quot;margin: 0px ; margin-top: 4px ; text-align: center ; text-decoration: underline&quot;&gt;&lt;strong&gt;&lt;strong&gt;Function 4&lt;/strong&gt;&lt;br&gt;&lt;/strong&gt;&lt;/p&gt;&lt;hr&gt;&lt;p style=&quot;margin: 0px ; margin-left: 8px&quot;&gt;Transforming to &lt;br&gt;&lt;/p&gt;&lt;p style=&quot;margin: 0px ; margin-left: 8px&quot;&gt;Settlement&lt;/p&gt;&lt;p style=&quot;margin: 0px ; margin-left: 8px&quot;&gt; Ladder&lt;br&gt;&lt;/p&gt;" style="verticalAlign=middle;align=center;overflow=fill;fontSize=12;fontFamily=Helvetica;html=1;rounded=1;fontStyle=1;strokeWidth=3;fillColor=#E6FFCC" vertex="1" parent="1">
          <mxGeometry x="660" y="450" width="110" height="90" as="geometry" />
        </mxCell>
        <mxCell id="tzFokicHPVw3fMw82fXG-104" value="" style="endArrow=none;noEdgeStyle=1;strokeColor=#990000;strokeWidth=2;endFill=0;startArrow=classic;startFill=1;entryX=0.75;entryY=1;entryDx=0;entryDy=0;" edge="1" parent="1" source="tzFokicHPVw3fMw82fXG-103" target="tzFokicHPVw3fMw82fXG-98">
          <mxGeometry relative="1" as="geometry">
            <mxPoint x="560" y="400" as="sourcePoint" />
            <mxPoint x="542.5" y="460" as="targetPoint" />
          </mxGeometry>
        </mxCell>
        <mxCell id="tzFokicHPVw3fMw82fXG-105" value="" style="endArrow=none;noEdgeStyle=1;strokeColor=#990000;strokeWidth=2;endFill=0;startArrow=classic;startFill=1;entryX=0.75;entryY=0;entryDx=0;entryDy=0;exitX=0.144;exitY=1.047;exitDx=0;exitDy=0;exitPerimeter=0;" edge="1" parent="1" source="tzFokicHPVw3fMw82fXG-102" target="tzFokicHPVw3fMw82fXG-103">
          <mxGeometry relative="1" as="geometry">
            <mxPoint x="570" y="410" as="sourcePoint" />
            <mxPoint x="552.5" y="470" as="targetPoint" />
          </mxGeometry>
        </mxCell>
        <mxCell id="tzFokicHPVw3fMw82fXG-106" value="Spark Job - Loading Positions Hub" style="shape=process;whiteSpace=wrap;align=center;verticalAlign=middle;size=0.0475;fontStyle=1;strokeWidth=3;fillColor=#FFCCCC" vertex="1" parent="1">
          <mxGeometry x="270" y="580" width="520" height="50" as="geometry" />
        </mxCell>
        <mxCell id="tzFokicHPVw3fMw82fXG-109" value="" style="endArrow=classic;noEdgeStyle=1;strokeColor=#990000;strokeWidth=2;endFill=1;startArrow=none;startFill=0;entryX=0.25;entryY=0;entryDx=0;entryDy=0;" edge="1" parent="1" source="13" target="11">
          <mxGeometry relative="1" as="geometry">
            <mxPoint x="401.50999999999976" y="399.52" as="sourcePoint" />
            <mxPoint x="382.5" y="460" as="targetPoint" />
          </mxGeometry>
        </mxCell>
        <mxCell id="tzFokicHPVw3fMw82fXG-110" value="Akka Streaming - Sourcing Positions" style="shape=process;whiteSpace=wrap;align=center;verticalAlign=middle;size=0.0475;fontStyle=1;strokeWidth=3;fillColor=#FFCCCC" vertex="1" parent="1">
          <mxGeometry x="80" y="580" width="160" height="50" as="geometry" />
        </mxCell>
        <mxCell id="tzFokicHPVw3fMw82fXG-113" value="/published/client_settlement_ladder_sod" style="whiteSpace=wrap;align=center;verticalAlign=middle;fontStyle=1;strokeWidth=3;fillColor=#FFFFCC" vertex="1" parent="1">
          <mxGeometry x="1040" y="330" width="260" height="60" as="geometry" />
        </mxCell>
        <mxCell id="tzFokicHPVw3fMw82fXG-114" value="&lt;p style=&quot;margin: 0px ; margin-top: 4px ; text-align: center ; text-decoration: underline&quot;&gt;&lt;strong&gt;&lt;strong&gt;Function 5&lt;/strong&gt;&lt;br&gt;&lt;/strong&gt;&lt;/p&gt;&lt;hr&gt;&lt;p style=&quot;margin: 0px ; margin-left: 8px&quot;&gt;Publishing&lt;/p&gt;&lt;p style=&quot;margin: 0px ; margin-left: 8px&quot;&gt;Settlement &lt;br&gt;&lt;/p&gt;&lt;p style=&quot;margin: 0px ; margin-left: 8px&quot;&gt;Ladder&lt;br&gt;&lt;/p&gt;" style="verticalAlign=middle;align=center;overflow=fill;fontSize=12;fontFamily=Helvetica;html=1;rounded=1;fontStyle=1;strokeWidth=3;fillColor=#E6FFCC" vertex="1" parent="1">
          <mxGeometry x="970" y="450" width="110" height="90" as="geometry" />
        </mxCell>
        <mxCell id="tzFokicHPVw3fMw82fXG-115" value="Akka Streaming - Publishing  Settlement Ladder" style="shape=process;whiteSpace=wrap;align=center;verticalAlign=middle;size=0.0475;fontStyle=1;strokeWidth=3;fillColor=#FFCCCC" vertex="1" parent="1">
          <mxGeometry x="940" y="580" width="190" height="50" as="geometry" />
        </mxCell>
        <mxCell id="tzFokicHPVw3fMw82fXG-116" value="" style="endArrow=none;noEdgeStyle=1;strokeColor=#990000;strokeWidth=2;endFill=0;startArrow=classic;startFill=1;entryX=0.195;entryY=-0.015;entryDx=0;entryDy=0;entryPerimeter=0;exitX=0.922;exitY=0.992;exitDx=0;exitDy=0;exitPerimeter=0;" edge="1" parent="1" source="tzFokicHPVw3fMw82fXG-102" target="tzFokicHPVw3fMw82fXG-114">
          <mxGeometry relative="1" as="geometry">
            <mxPoint x="767.44" y="402.81999999999994" as="sourcePoint" />
            <mxPoint x="752.5" y="460" as="targetPoint" />
          </mxGeometry>
        </mxCell>
        <mxCell id="tzFokicHPVw3fMw82fXG-117" value="" style="endArrow=none;noEdgeStyle=1;strokeColor=#990000;strokeWidth=2;endFill=0;startArrow=classic;startFill=1;entryX=0.75;entryY=0;entryDx=0;entryDy=0;exitX=0.077;exitY=1;exitDx=0;exitDy=0;exitPerimeter=0;" edge="1" parent="1" source="tzFokicHPVw3fMw82fXG-113" target="tzFokicHPVw3fMw82fXG-114">
          <mxGeometry relative="1" as="geometry">
            <mxPoint x="969.7199999999998" y="399.52" as="sourcePoint" />
            <mxPoint x="1001.4499999999998" y="443.6500000000001" as="targetPoint" />
          </mxGeometry>
        </mxCell>
        <mxCell id="tzFokicHPVw3fMw82fXG-118" value="" style="shape=arrow;endArrow=classic;html=1;strokeColor=#66B2FF;fillColor=#66B2FF;" edge="1" parent="1">
          <mxGeometry width="50" height="50" relative="1" as="geometry">
            <mxPoint x="1300" y="690" as="sourcePoint" />
            <mxPoint x="1480" y="690" as="targetPoint" />
          </mxGeometry>
        </mxCell>
        <mxCell id="tzFokicHPVw3fMw82fXG-121" value="Business Flow" style="text;html=1;strokeColor=none;fillColor=none;align=center;verticalAlign=middle;whiteSpace=wrap;rounded=0;labelBackgroundColor=none;fontSize=15;fontStyle=1" vertex="1" parent="1">
          <mxGeometry x="1320" y="650" width="100" height="20" as="geometry" />
        </mxCell>
        <mxCell id="tzFokicHPVw3fMw82fXG-122" value="Business Flow Steps" style="text;html=1;strokeColor=none;fillColor=none;align=center;verticalAlign=middle;whiteSpace=wrap;rounded=0;labelBackgroundColor=none;fontSize=15;fontStyle=1" vertex="1" parent="1">
          <mxGeometry x="1150" y="595" width="140" height="20" as="geometry" />
        </mxCell>
        <mxCell id="tzFokicHPVw3fMw82fXG-123" value="Datasets" style="text;html=1;strokeColor=none;fillColor=none;align=center;verticalAlign=middle;whiteSpace=wrap;rounded=0;labelBackgroundColor=none;fontSize=15;fontStyle=1" vertex="1" parent="1">
          <mxGeometry x="1320" y="350" width="80" height="20" as="geometry" />
        </mxCell>
        <mxCell id="tzFokicHPVw3fMw82fXG-126" value="" style="shape=flexArrow;endArrow=classic;startArrow=classic;html=1;strokeColor=#000000;fillColor=none;fontSize=15;" edge="1" parent="1">
          <mxGeometry width="50" height="50" relative="1" as="geometry">
            <mxPoint x="150" y="290" as="sourcePoint" />
            <mxPoint x="980" y="290" as="targetPoint" />
          </mxGeometry>
        </mxCell>
        <mxCell id="tzFokicHPVw3fMw82fXG-127" value="Staging Area - Time Series - Snapshots" style="edgeLabel;html=1;align=center;verticalAlign=middle;resizable=0;points=[];fontSize=15;" vertex="1" connectable="0" parent="tzFokicHPVw3fMw82fXG-126">
          <mxGeometry x="-0.0707" y="-2" relative="1" as="geometry">
            <mxPoint as="offset" />
          </mxGeometry>
        </mxCell>
        <mxCell id="tzFokicHPVw3fMw82fXG-128" value="" style="shape=flexArrow;endArrow=classic;startArrow=classic;html=1;strokeColor=#000000;fillColor=none;fontSize=15;" edge="1" parent="1">
          <mxGeometry width="50" height="50" relative="1" as="geometry">
            <mxPoint x="1040" y="290" as="sourcePoint" />
            <mxPoint x="1300" y="290" as="targetPoint" />
          </mxGeometry>
        </mxCell>
        <mxCell id="tzFokicHPVw3fMw82fXG-129" value="Publishing Area -&amp;nbsp; Published Version" style="edgeLabel;html=1;align=center;verticalAlign=middle;resizable=0;points=[];fontSize=15;" vertex="1" connectable="0" parent="tzFokicHPVw3fMw82fXG-128">
          <mxGeometry x="-0.0707" y="-2" relative="1" as="geometry">
            <mxPoint as="offset" />
          </mxGeometry>
        </mxCell>
        <mxCell id="tzFokicHPVw3fMw82fXG-131" value="" style="html=1;whiteSpace=wrap;aspect=fixed;shape=isoCube;backgroundOutline=1;labelBackgroundColor=none;fillColor=#f8cecc;fontSize=15;strokeColor=#000000;strokeWidth=3;" vertex="1" parent="1">
          <mxGeometry x="900" y="45" width="90" height="100" as="geometry" />
        </mxCell>
        <mxCell id="tzFokicHPVw3fMw82fXG-132" value="Reader" style="text;html=1;strokeColor=none;fillColor=none;align=center;verticalAlign=middle;whiteSpace=wrap;rounded=0;labelBackgroundColor=none;fontSize=15;fontStyle=1" vertex="1" parent="1">
          <mxGeometry x="900" y="20" width="80" height="20" as="geometry" />
        </mxCell>
        <mxCell id="tzFokicHPVw3fMw82fXG-133" value="/staging/json/positions_sod" style="text;whiteSpace=wrap;html=1;fontSize=15;" vertex="1" parent="1">
          <mxGeometry x="1000" y="15" width="210" height="30" as="geometry" />
        </mxCell>
        <mxCell id="tzFokicHPVw3fMw82fXG-134" value="/staging/enriched/json/positions_sod" style="text;whiteSpace=wrap;html=1;fontSize=15;" vertex="1" parent="1">
          <mxGeometry x="1000" y="45" width="280" height="30" as="geometry" />
        </mxCell>
        <mxCell id="tzFokicHPVw3fMw82fXG-135" value="/staging/hub/json/positions_sod" style="text;whiteSpace=wrap;html=1;fontSize=15;" vertex="1" parent="1">
          <mxGeometry x="1000" y="75" width="280" height="30" as="geometry" />
        </mxCell>
        <mxCell id="tzFokicHPVw3fMw82fXG-136" value="/staging/json/client_settlement_ladder_sod" style="text;whiteSpace=wrap;html=1;fontSize=15;" vertex="1" parent="1">
          <mxGeometry x="1000" y="105" width="300" height="30" as="geometry" />
        </mxCell>
        <mxCell id="tzFokicHPVw3fMw82fXG-137" value="/published/json/client_settlement_ladder_sod" style="text;whiteSpace=wrap;html=1;fontSize=15;" vertex="1" parent="1">
          <mxGeometry x="1000" y="135" width="310" height="40" as="geometry" />
        </mxCell>
        <mxCell id="tzFokicHPVw3fMw82fXG-138" style="edgeStyle=orthogonalEdgeStyle;shape=arrow;rounded=0;orthogonalLoop=1;jettySize=auto;html=1;exitX=0.5;exitY=1;exitDx=0;exitDy=0;startArrow=none;startFill=0;endArrow=classic;endFill=1;strokeColor=#000000;fillColor=none;fontSize=15;" edge="1" parent="1" source="tzFokicHPVw3fMw82fXG-132" target="tzFokicHPVw3fMw82fXG-132">
          <mxGeometry relative="1" as="geometry" />
        </mxCell>
        <mxCell id="tzFokicHPVw3fMw82fXG-139" value="" style="endArrow=classic;noEdgeStyle=1;strokeColor=#990000;strokeWidth=2;endFill=1;startArrow=none;startFill=0;exitX=0.5;exitY=0;exitDx=0;exitDy=0;curved=1;" edge="1" parent="1" source="13" target="tzFokicHPVw3fMw82fXG-131">
          <mxGeometry relative="1" as="geometry">
            <mxPoint x="255.83333333333348" y="400" as="sourcePoint" />
            <mxPoint x="307.5" y="460" as="targetPoint" />
            <Array as="points">
              <mxPoint x="200" y="60" />
            </Array>
          </mxGeometry>
        </mxCell>
        <mxCell id="tzFokicHPVw3fMw82fXG-140" value="" style="endArrow=classic;noEdgeStyle=1;strokeColor=#990000;strokeWidth=2;endFill=1;startArrow=none;startFill=0;curved=1;" edge="1" parent="1" source="15">
          <mxGeometry relative="1" as="geometry">
            <mxPoint x="230" y="340" as="sourcePoint" />
            <mxPoint x="900" y="103" as="targetPoint" />
            <Array as="points">
              <mxPoint x="210" y="70" />
            </Array>
          </mxGeometry>
        </mxCell>
        <mxCell id="tzFokicHPVw3fMw82fXG-141" value="" style="endArrow=classic;noEdgeStyle=1;strokeColor=#990000;strokeWidth=2;endFill=1;startArrow=none;startFill=0;exitX=0.25;exitY=0;exitDx=0;exitDy=0;curved=1;" edge="1" parent="1" source="tzFokicHPVw3fMw82fXG-98">
          <mxGeometry relative="1" as="geometry">
            <mxPoint x="240" y="350" as="sourcePoint" />
            <mxPoint x="900" y="113" as="targetPoint" />
            <Array as="points">
              <mxPoint x="220" y="80" />
            </Array>
          </mxGeometry>
        </mxCell>
        <mxCell id="tzFokicHPVw3fMw82fXG-142" value="" style="endArrow=classic;noEdgeStyle=1;strokeColor=#990000;strokeWidth=2;endFill=1;startArrow=none;startFill=0;exitX=0.5;exitY=0;exitDx=0;exitDy=0;curved=1;entryX=0;entryY=0;entryDx=0;entryDy=72.5;entryPerimeter=0;" edge="1" parent="1" target="tzFokicHPVw3fMw82fXG-131">
          <mxGeometry relative="1" as="geometry">
            <mxPoint x="750" y="330" as="sourcePoint" />
            <mxPoint x="1430" y="92.88590604026854" as="targetPoint" />
            <Array as="points">
              <mxPoint x="730" y="170" />
            </Array>
          </mxGeometry>
        </mxCell>
        <mxCell id="tzFokicHPVw3fMw82fXG-143" value="" style="endArrow=classic;noEdgeStyle=1;strokeColor=#990000;strokeWidth=2;endFill=1;startArrow=none;startFill=0;curved=1;entryX=0.072;entryY=0.795;entryDx=0;entryDy=0;entryPerimeter=0;" edge="1" parent="1" target="tzFokicHPVw3fMw82fXG-131">
          <mxGeometry relative="1" as="geometry">
            <mxPoint x="1060" y="330" as="sourcePoint" />
            <mxPoint x="940" y="117.5" as="targetPoint" />
            <Array as="points">
              <mxPoint x="770" y="170" />
            </Array>
          </mxGeometry>
        </mxCell>
        <mxCell id="tzFokicHPVw3fMw82fXG-145" value="" style="html=1;whiteSpace=wrap;aspect=fixed;shape=isoCube;backgroundOutline=1;labelBackgroundColor=none;fillColor=#3399FF;fontSize=15;strokeColor=#000000;strokeWidth=3;" vertex="1" parent="1">
          <mxGeometry x="230" y="45" width="90" height="100" as="geometry" />
        </mxCell>
        <mxCell id="tzFokicHPVw3fMw82fXG-146" value="Catalog" style="text;html=1;strokeColor=none;fillColor=none;align=center;verticalAlign=middle;whiteSpace=wrap;rounded=0;labelBackgroundColor=none;fontSize=15;fontStyle=1" vertex="1" parent="1">
          <mxGeometry x="240" y="20" width="80" height="20" as="geometry" />
        </mxCell>
        <mxCell id="tzFokicHPVw3fMw82fXG-147" value="/staging/positions_sod/partitions" style="text;whiteSpace=wrap;html=1;fontSize=15;" vertex="1" parent="1">
          <mxGeometry x="-90" y="20" width="220" height="30" as="geometry" />
        </mxCell>
        <mxCell id="tzFokicHPVw3fMw82fXG-148" value="/staging/enriched/positions_sod/partitions" style="text;whiteSpace=wrap;html=1;fontSize=15;" vertex="1" parent="1">
          <mxGeometry x="-90" y="50" width="270" height="30" as="geometry" />
        </mxCell>
        <mxCell id="tzFokicHPVw3fMw82fXG-149" value="/staging/hub/positions_sod/partitions" style="text;whiteSpace=wrap;html=1;fontSize=15;" vertex="1" parent="1">
          <mxGeometry x="-90" y="80" width="280" height="30" as="geometry" />
        </mxCell>
        <mxCell id="tzFokicHPVw3fMw82fXG-150" value="/staging/client_settlement_ladder_sod/partitions" style="text;whiteSpace=wrap;html=1;fontSize=15;" vertex="1" parent="1">
          <mxGeometry x="-90" y="110" width="310" height="30" as="geometry" />
        </mxCell>
        <mxCell id="tzFokicHPVw3fMw82fXG-151" value="/published/client_settlement_ladder_sod/partitions" style="text;whiteSpace=wrap;html=1;fontSize=15;" vertex="1" parent="1">
          <mxGeometry x="-90" y="140" width="330" height="40" as="geometry" />
        </mxCell>
        <mxCell id="tzFokicHPVw3fMw82fXG-152" value="" style="endArrow=classic;noEdgeStyle=1;strokeColor=#3333FF;strokeWidth=2;endFill=1;startArrow=none;startFill=0;exitX=0.25;exitY=0;exitDx=0;exitDy=0;curved=1;dashed=1;" edge="1" parent="1" source="10" target="tzFokicHPVw3fMw82fXG-145">
          <mxGeometry relative="1" as="geometry">
            <mxPoint x="230" y="340" as="sourcePoint" />
            <mxPoint x="910" y="102.88590604026854" as="targetPoint" />
            <Array as="points">
              <mxPoint x="-10" y="290" />
              <mxPoint x="160" y="120" />
            </Array>
          </mxGeometry>
        </mxCell>
        <mxCell id="tzFokicHPVw3fMw82fXG-153" value="" style="endArrow=classic;noEdgeStyle=1;strokeColor=#3333FF;strokeWidth=2;endFill=1;startArrow=none;startFill=0;curved=1;dashed=1;" edge="1" parent="1" source="11">
          <mxGeometry relative="1" as="geometry">
            <mxPoint x="147.5" y="460" as="sourcePoint" />
            <mxPoint x="230" y="120" as="targetPoint" />
            <Array as="points">
              <mxPoint x="30" y="300" />
              <mxPoint x="170" y="130" />
            </Array>
          </mxGeometry>
        </mxCell>
        <mxCell id="tzFokicHPVw3fMw82fXG-154" value="" style="endArrow=classic;noEdgeStyle=1;strokeColor=#3333FF;strokeWidth=2;endFill=1;startArrow=none;startFill=0;curved=1;dashed=1;exitX=-0.002;exitY=0.143;exitDx=0;exitDy=0;exitPerimeter=0;" edge="1" parent="1" source="9">
          <mxGeometry relative="1" as="geometry">
            <mxPoint x="280" y="468.64406779661" as="sourcePoint" />
            <mxPoint x="240" y="130" as="targetPoint" />
            <Array as="points">
              <mxPoint x="40" y="310" />
              <mxPoint x="180" y="140" />
            </Array>
          </mxGeometry>
        </mxCell>
        <mxCell id="tzFokicHPVw3fMw82fXG-155" value="" style="endArrow=classic;noEdgeStyle=1;strokeColor=#3333FF;strokeWidth=2;endFill=1;startArrow=none;startFill=0;curved=1;dashed=1;exitX=0;exitY=0.25;exitDx=0;exitDy=0;" edge="1" parent="1" source="tzFokicHPVw3fMw82fXG-103">
          <mxGeometry relative="1" as="geometry">
            <mxPoint x="469.77999999999975" y="472.8699999999999" as="sourcePoint" />
            <mxPoint x="250" y="140" as="targetPoint" />
            <Array as="points">
              <mxPoint x="50" y="320" />
              <mxPoint x="190" y="150" />
            </Array>
          </mxGeometry>
        </mxCell>
        <mxCell id="tzFokicHPVw3fMw82fXG-156" value="" style="endArrow=classic;noEdgeStyle=1;strokeColor=#3333FF;strokeWidth=2;endFill=1;startArrow=none;startFill=0;curved=1;dashed=1;exitX=0;exitY=0.25;exitDx=0;exitDy=0;" edge="1" parent="1" source="tzFokicHPVw3fMw82fXG-114">
          <mxGeometry relative="1" as="geometry">
            <mxPoint x="670" y="482.5" as="sourcePoint" />
            <mxPoint x="260" y="150" as="targetPoint" />
            <Array as="points">
              <mxPoint x="60" y="330" />
              <mxPoint x="200" y="160" />
            </Array>
          </mxGeometry>
        </mxCell>
        <mxCell id="tzFokicHPVw3fMw82fXG-158" value="" style="edgeStyle=elbowEdgeStyle;elbow=horizontal;strokeColor=#3333FF;strokeWidth=1;exitX=0;exitY=0;exitDx=90;exitDy=27.5;exitPerimeter=0;entryX=0;entryY=0;entryDx=0;entryDy=27.5;entryPerimeter=0;startArrow=classic;startFill=1;endArrow=none;endFill=0;" edge="1" parent="1" source="tzFokicHPVw3fMw82fXG-145" target="tzFokicHPVw3fMw82fXG-131">
          <mxGeometry width="100" height="100" relative="1" as="geometry">
            <mxPoint x="190" y="460" as="sourcePoint" />
            <mxPoint x="190" y="400" as="targetPoint" />
            <Array as="points">
              <mxPoint x="690" y="47" />
              <mxPoint x="450" y="47" />
              <mxPoint x="210" y="440" />
              <mxPoint x="210" y="560" />
              <mxPoint x="440" y="425" />
              <mxPoint x="294" y="500" />
            </Array>
          </mxGeometry>
        </mxCell>
      </root>
    </mxGraphModel>
  </diagram>
</mxfile>
